<svg width="68" height="40" viewBox="0 0 68 40" fill="none" xmlns="http://www.w3.org/2000/svg">
<g clip-path="url(#clip0_695_10)">
<path d="M68.0001 20C68.0001 31.0456 58.9794 40 47.852 40H47.5913H47.4307L47.2752 39.9962C47.1606 39.9962 47.0454 39.9887 46.9314 39.9837C46.8867 39.9837 46.8427 39.98 46.798 39.9769L46.5581 39.9637L46.3837 39.9519L46.3238 39.9475C46.2716 39.9437 46.2193 39.94 46.1671 39.935C46.1148 39.93 46.0739 39.9275 46.0273 39.9231C45.97 39.9181 45.9127 39.9131 45.8548 39.9069L45.7584 39.8975C45.6224 39.8837 45.4871 39.8687 45.3517 39.8512C45.3007 39.8456 45.2491 39.8387 45.1974 39.8319C45.0715 39.8165 44.9479 39.7992 44.8266 39.78L44.6408 39.75C44.5779 39.7406 44.5149 39.7306 44.457 39.72L44.2738 39.6881C44.1932 39.6744 44.1126 39.6594 44.0332 39.6437C43.9703 39.6331 43.9136 39.6212 43.8538 39.6094L43.7279 39.5831C43.6057 39.5581 43.4848 39.5319 43.364 39.5044L43.1858 39.4631L43.0063 39.42C42.8867 39.3912 42.7677 39.3608 42.6493 39.3287L42.4724 39.2812L42.2955 39.2319C42.1777 39.1981 42.06 39.1637 41.9435 39.1281L41.7924 39.0819L41.7194 39.0587L41.5758 39.0125C41.4537 38.9725 41.3315 38.9319 41.2106 38.8875L41.0368 38.825L41.0192 38.8187L40.8492 38.7562C40.6685 38.6937 40.4903 38.6219 40.3128 38.55L40.1358 38.4781L39.9595 38.4044C39.842 38.3556 39.7253 38.305 39.6095 38.2525L39.459 38.1875L39.4105 38.1656L39.2921 38.1106C38.7884 37.8765 38.2959 37.6215 37.8144 37.3456L37.6639 37.2587C37.5827 37.2119 37.5015 37.1637 37.4215 37.115L37.2956 37.0369L37.2477 37.0081L37.1287 36.9337C36.9566 36.8271 36.7871 36.7175 36.62 36.605L36.467 36.5C36.3923 36.4496 36.318 36.3983 36.2441 36.3462C36.2399 36.3437 36.2359 36.3408 36.2321 36.3375C36.1557 36.2842 36.0802 36.2304 36.0055 36.1762L35.9923 36.1669C35.9112 36.1081 35.8306 36.0487 35.7505 35.9887C35.7408 35.9824 35.7316 35.9755 35.7228 35.9681C35.6529 35.9162 35.5836 35.8637 35.515 35.81C35.4986 35.7987 35.4835 35.7869 35.4684 35.7744C35.401 35.7225 35.3337 35.67 35.2669 35.6162C35.2417 35.5969 35.2165 35.5762 35.1914 35.5537C35.1234 35.5 35.0554 35.4444 34.988 35.3881C34.9729 35.3769 34.9584 35.365 34.9445 35.3525C34.8967 35.3133 34.8488 35.2733 34.801 35.2325C34.7582 35.1969 34.7154 35.16 34.6751 35.1237C34.6033 35.0633 34.5326 35.0008 34.4629 34.9362C34.388 34.8706 34.3143 34.8037 34.2406 34.7369C34.167 34.67 34.0977 34.6062 34.0272 34.5394C33.6779 34.2131 33.3407 33.874 33.0154 33.5219C32.9782 33.4825 32.9417 33.4425 32.9058 33.4025C32.8554 33.3481 32.8057 33.2931 32.7572 33.2375C32.7087 33.1819 32.6647 33.1337 32.6193 33.0812C32.574 33.0287 32.5142 32.96 32.4619 32.8987C32.3083 32.7192 32.1584 32.5369 32.0124 32.3519L31.8915 32.1975C31.7769 32.0512 31.6648 31.9029 31.5553 31.7525C31.4923 31.6662 31.4293 31.58 31.3664 31.4925C31.3618 31.4867 31.3576 31.4807 31.3538 31.4744C31.2929 31.3881 31.2325 31.3012 31.1724 31.2137C31.1174 31.1346 31.0637 31.0548 31.0113 30.9744C30.9898 30.9431 30.9684 30.9119 30.9483 30.8781C30.9101 30.8206 30.8723 30.7625 30.835 30.7037C30.8205 30.6819 30.806 30.66 30.7928 30.6375C30.7386 30.5542 30.6853 30.4687 30.6328 30.3812C30.5749 30.2875 30.5183 30.1937 30.4622 30.0975C30.4062 30.0012 30.3508 29.91 30.296 29.8112C30.2645 29.7556 30.233 29.7006 30.2022 29.6444L30.1348 29.5194C30.0964 29.4506 30.0593 29.3812 30.0221 29.3119C30.0133 29.2956 30.0045 29.2787 29.9963 29.2619C29.9648 29.1994 29.9333 29.1425 29.9025 29.0825C29.8647 29.0087 29.8275 28.935 29.7904 28.8612C29.7533 28.7875 29.7174 28.7131 29.6815 28.6394C29.6093 28.4906 29.539 28.3408 29.4705 28.19C29.4021 28.0392 29.3356 27.8873 29.271 27.7344C29.2388 27.6581 29.208 27.5812 29.1753 27.5044C29.1425 27.4275 29.1123 27.3512 29.0827 27.2744C29.0525 27.1975 29.0197 27.1206 28.9933 27.0431C28.9668 26.9656 28.9347 26.8875 28.9058 26.8094C28.8218 26.5752 28.7406 26.3385 28.6621 26.0994C28.6363 26.02 28.6111 25.94 28.5865 25.86C28.5507 25.7444 28.516 25.6275 28.482 25.5106C28.4657 25.4525 28.4487 25.3937 28.4323 25.335C28.4159 25.2762 28.4002 25.2181 28.3844 25.1594C28.3521 25.0419 28.3215 24.9237 28.2925 24.805C28.2774 24.7458 28.2629 24.6865 28.2491 24.6269L28.2075 24.45C28.1798 24.33 28.1534 24.21 28.1282 24.0888L28.1017 23.9638C28.0898 23.9044 28.0778 23.845 28.0671 23.7856C28.0514 23.7069 28.0363 23.6269 28.0224 23.5469C28.0111 23.4865 28.0004 23.4258 27.9903 23.365C27.9796 23.3025 27.9695 23.24 27.9601 23.1825C27.9506 23.125 27.9405 23.0575 27.9311 22.9988C27.9122 22.8738 27.8952 22.7537 27.8788 22.6306C27.8719 22.5794 27.865 22.5281 27.8593 22.4775C27.8417 22.3431 27.8266 22.2087 27.8127 22.0738C27.809 22.0421 27.8058 22.0102 27.8033 21.9781C27.797 21.9206 27.792 21.8638 27.7869 21.8069C27.7825 21.7606 27.7781 21.7144 27.775 21.6681C27.7718 21.6219 27.7661 21.5644 27.7624 21.5125C27.7624 21.4925 27.7592 21.4731 27.758 21.4531C27.7535 21.3956 27.7498 21.3375 27.746 21.28C27.741 21.2004 27.7365 21.121 27.7328 21.0419C27.7296 20.9975 27.7277 20.9538 27.7258 20.9094C27.7208 20.7963 27.7164 20.6819 27.7133 20.5681L27.7095 20.4138C27.7095 20.3606 27.7095 20.3075 27.7095 20.2544C27.7095 20.1681 27.7095 20.0819 27.7095 19.9956C27.7095 19.9094 27.7095 19.8231 27.7095 19.7369C27.7095 19.6619 27.7107 19.5869 27.7133 19.5119C27.7177 19.3194 27.7252 19.1281 27.7359 18.9369C27.7391 18.8669 27.7428 18.7963 27.7479 18.7263C27.7548 18.6156 27.7624 18.5044 27.7712 18.3944C27.7762 18.3319 27.7819 18.2694 27.7875 18.2031C27.7938 18.1288 27.8014 18.0544 27.809 17.9794L27.8146 17.9206C27.8222 17.8469 27.8304 17.7731 27.8392 17.6994C27.848 17.6219 27.8574 17.545 27.8669 17.4688C27.8744 17.41 27.882 17.3519 27.8902 17.2938C27.8984 17.2356 27.9047 17.1894 27.9122 17.1375C27.9345 16.9817 27.9586 16.8267 27.9846 16.6725C27.9966 16.6019 28.0085 16.5319 28.0211 16.4619C28.0208 16.4579 28.0208 16.454 28.0211 16.45C28.0476 16.3006 28.0759 16.1525 28.1068 16.0044C28.1137 15.9694 28.1206 15.935 28.1282 15.9006C28.1483 15.8025 28.1697 15.7044 28.1911 15.6069C28.2394 15.3915 28.2917 15.1775 28.3479 14.965C28.3706 14.8769 28.3939 14.7888 28.4184 14.7006C28.4455 14.6019 28.4738 14.5025 28.5028 14.4044C28.5286 14.3156 28.5551 14.2269 28.5828 14.1388C28.5872 14.1219 28.5922 14.1056 28.5979 14.0894C28.6262 13.9981 28.6552 13.9075 28.6848 13.8169C28.7162 13.72 28.7477 13.6244 28.7817 13.5281C28.8157 13.4319 28.8478 13.3406 28.8825 13.2425L28.8863 13.2319C28.9077 13.1694 28.9297 13.1119 28.953 13.0525C28.9763 12.9931 28.9908 12.95 29.0103 12.8988C29.0733 12.7381 29.1362 12.5781 29.1992 12.42C29.2206 12.3675 29.242 12.315 29.2621 12.2631C29.2716 12.2388 29.2823 12.215 29.293 12.1913C29.3188 12.1288 29.3459 12.0663 29.3736 12.0038C29.3786 11.9913 29.3837 11.9794 29.3893 11.9675C29.4189 11.9 29.4523 11.8331 29.4794 11.7663C29.5467 11.6188 29.6154 11.4719 29.6865 11.3288C29.7104 11.2794 29.7344 11.23 29.7589 11.1813C29.7835 11.1325 29.7998 11.0981 29.8219 11.0563C29.8439 11.0144 29.8565 10.9863 29.8748 10.9519C29.893 10.9175 29.9125 10.8775 29.9327 10.84C29.9604 10.7863 29.9887 10.7325 30.0171 10.6794C30.0542 10.6088 30.092 10.5388 30.1298 10.4694C30.2318 10.2831 30.3367 10.099 30.4446 9.91688C30.4729 9.86875 30.5013 9.82125 30.5302 9.77376C30.5642 9.71626 30.5988 9.65938 30.6341 9.6025C30.7128 9.47313 30.794 9.34438 30.8765 9.2175C30.9193 9.15063 30.9634 9.08375 31.0075 9.0175C31.0421 8.96438 31.0774 8.91188 31.1126 8.86C31.3086 8.56834 31.5122 8.28396 31.7234 8.00688C31.7561 7.96313 31.7895 7.92 31.8228 7.87688C31.8436 7.84875 31.8644 7.82125 31.8858 7.79438L32.0067 7.64C32.1528 7.455 32.3026 7.27271 32.4562 7.09313C32.5085 7.03063 32.5608 6.96813 32.6137 6.91063C32.6665 6.85313 32.705 6.80626 32.7515 6.75438C32.7981 6.70251 32.8498 6.64375 32.9001 6.58938C32.936 6.54938 32.9725 6.50938 33.0097 6.47001C33.3262 6.12667 33.6551 5.79521 33.9963 5.47563C35.5414 6.92832 36.8462 8.61356 37.8629 10.4694C35.38 13.0295 33.9951 16.4463 34.0001 20C34.0001 20.1619 34.0001 20.3231 34.0089 20.4831C34.0824 22.6648 34.6808 24.7973 35.7542 26.7025C35.8604 26.8912 35.9711 27.0771 36.0861 27.26L55.1638 8.3225C53.1101 7.05178 50.7554 6.34042 48.3368 6.26001C48.1756 6.25376 48.0131 6.25126 47.8501 6.25126C46.2509 6.24937 44.6636 6.52302 43.1587 7.06001C42.0869 5.18609 40.7873 3.44997 39.289 1.89063C39.6815 1.70688 40.0802 1.53605 40.4853 1.37813L40.6528 1.31563C40.7925 1.26188 40.9336 1.21063 41.0752 1.16063C41.1338 1.13938 41.193 1.11938 41.2522 1.09813C41.3114 1.07688 41.3699 1.05751 41.4297 1.03563C41.4895 1.01376 41.5557 0.993132 41.6218 0.973132C41.6998 0.947507 41.7785 0.923132 41.8579 0.898757L42.0568 0.836257C42.2092 0.791257 42.3624 0.747715 42.5165 0.705632C42.5599 0.693757 42.6027 0.681882 42.6462 0.671257C42.7016 0.656257 42.7576 0.641257 42.8137 0.627507C42.8697 0.613757 42.9396 0.595007 43.0025 0.579382C43.0819 0.560007 43.1612 0.540632 43.2412 0.522507L43.3595 0.500007L43.5018 0.468757C43.6794 0.430007 43.8582 0.393132 44.0383 0.359382C44.1195 0.343757 44.2007 0.328757 44.2826 0.314382H44.2914C44.372 0.299382 44.4532 0.285632 44.5344 0.272507C44.6717 0.250007 44.8098 0.229174 44.9487 0.210007L45.0917 0.187507C45.3082 0.158132 45.5255 0.131882 45.7446 0.109382L45.8453 0.0993823C45.9045 0.0931323 45.9631 0.0881323 46.0216 0.0831323C46.1085 0.0750073 46.1954 0.0675073 46.2823 0.0612573L46.3792 0.0543823C46.4359 0.0500073 46.4932 0.0456323 46.5505 0.0425073H46.57L46.7772 0.0306323C46.8722 0.0256323 46.9661 0.0212573 47.0637 0.0175073L47.2601 0.0112573C47.3098 0.0112573 47.3602 0.00813232 47.41 0.00750732H47.551C47.6511 0.00750732 47.7512 0.00750732 47.852 0.00750732H48.1126H48.2732L48.4287 0.0112573C48.5433 0.0112573 48.6579 0.0187573 48.7725 0.0237573C48.8172 0.0237573 48.8612 0.0275073 48.906 0.0306323C48.9857 0.0343823 49.0657 0.0387573 49.1458 0.0437573L49.3202 0.0556323L49.3801 0.0600073C49.4323 0.0637573 49.4846 0.0675073 49.5368 0.0725073C49.5891 0.0775073 49.63 0.0800073 49.6766 0.0843823C49.7339 0.0893823 49.7912 0.0943823 49.8491 0.100632C49.881 0.103132 49.9131 0.106257 49.9455 0.110007C50.0815 0.123757 50.2168 0.138757 50.3522 0.156257C50.4032 0.161882 50.4548 0.168757 50.5065 0.175632C50.6324 0.191882 50.7539 0.208757 50.8773 0.227507L51.0624 0.256257C51.1254 0.265632 51.1884 0.275632 51.2463 0.286257L51.4295 0.318132C51.5101 0.331882 51.5907 0.346882 51.67 0.362507C51.733 0.373132 51.7897 0.385007 51.8495 0.396882L51.9754 0.423132C52.0975 0.448132 52.2184 0.474382 52.3393 0.501882L52.5175 0.543132C52.5775 0.556882 52.6373 0.571257 52.697 0.586257C52.8166 0.615007 52.9356 0.645424 53.054 0.677507L53.2309 0.725007L53.4078 0.774382C53.5255 0.808132 53.6433 0.842507 53.7598 0.878132L53.9613 0.940632L54.1621 1.00313L54.3617 1.06938C54.4945 1.11438 54.6268 1.16126 54.7584 1.20876L54.9548 1.28126C55.009 1.30126 55.0631 1.32209 55.1172 1.34376C55.2016 1.37501 55.2847 1.40626 55.3691 1.44126L55.541 1.51126L55.7337 1.59126C55.7966 1.61813 55.8596 1.64563 55.9225 1.67376C55.9855 1.70188 56.0485 1.72876 56.1114 1.75751L56.3003 1.84376C56.3633 1.87251 56.4262 1.90188 56.4892 1.93188C56.5711 1.97001 56.6523 2.00876 56.7329 2.04876L56.8632 2.11126C56.9262 2.14188 56.9891 2.17376 57.0521 2.20501C57.178 2.26751 57.2977 2.33001 57.4198 2.39751L57.5797 2.48438C57.6899 2.54688 57.7988 2.60501 57.9065 2.66751L58.0324 2.73938C58.1886 2.83001 58.3435 2.92251 58.4965 3.01813L58.6098 3.08876C58.6451 3.11063 58.6803 3.13251 58.715 3.15501C58.7779 3.19688 58.8459 3.23876 58.9108 3.28001C58.9567 3.30938 59.0021 3.33876 59.0468 3.36938C59.0915 3.40001 59.1324 3.42626 59.1727 3.45563C59.524 3.6923 59.867 3.94021 60.2015 4.19938C60.2424 4.23001 60.2834 4.26188 60.3237 4.29376C60.5037 4.43459 60.6811 4.57855 60.8557 4.72563L61.032 4.87501C61.095 4.92876 61.1579 4.98251 61.2209 5.03751C61.2599 5.07126 61.2983 5.10563 61.3367 5.14063C61.4205 5.21438 61.503 5.29001 61.5848 5.36626C61.6345 5.41188 61.6843 5.45813 61.7334 5.50501C61.9815 5.73834 62.223 5.97813 62.4581 6.22438C62.5053 6.27313 62.5519 6.3225 62.5979 6.37188C62.6747 6.45313 62.7509 6.53501 62.8252 6.61813C62.8604 6.65626 62.8951 6.69438 62.9291 6.73313C62.9845 6.79563 63.0386 6.85813 63.0928 6.92063C63.1469 6.98313 63.191 7.03375 63.2395 7.09063C63.3872 7.26355 63.5322 7.43959 63.6745 7.61875C63.7067 7.65875 63.7375 7.69938 63.7696 7.74C63.9006 7.90667 64.0282 8.0748 64.1524 8.24438L45.7817 26.4744L40.5382 31.6794C42.5919 32.9502 44.9466 33.6616 47.3652 33.7419C47.5264 33.7481 47.6889 33.7506 47.852 33.7506C55.502 33.7506 61.7038 27.5944 61.7038 20.0006C61.7038 19.8388 61.7038 19.6775 61.695 19.5175L64.5283 16.705L67.1186 14.1331C67.1545 14.2488 67.1891 14.3656 67.2231 14.4825C67.2395 14.5406 67.2565 14.5994 67.2729 14.6581C67.2892 14.7169 67.305 14.775 67.3207 14.8338C67.3526 14.9513 67.3833 15.0694 67.4127 15.1881C67.4278 15.2477 67.4422 15.3071 67.4561 15.3663L67.4977 15.5431C67.5254 15.6631 67.5518 15.7831 67.577 15.9044L67.6034 16.0294C67.6154 16.0888 67.6274 16.1481 67.6381 16.2075C67.6538 16.2863 67.6689 16.3663 67.6828 16.4463C67.6941 16.5067 67.7048 16.5673 67.7149 16.6281C67.7256 16.6906 67.7357 16.7531 67.7451 16.8106C67.7545 16.8681 67.7646 16.9356 67.7741 16.9944C67.793 17.1169 67.8104 17.2396 67.8263 17.3625C67.8332 17.4138 67.8402 17.465 67.8458 17.5156C67.8635 17.65 67.8786 17.7844 67.8924 17.9194C67.8962 17.951 67.8994 17.9829 67.9019 18.015C67.9082 18.0725 67.9132 18.1294 67.9182 18.1863C67.9227 18.2325 67.9271 18.2788 67.9302 18.325C67.9334 18.3713 67.939 18.4288 67.9428 18.4806C67.9428 18.5006 67.946 18.52 67.9472 18.54C67.9516 18.5975 67.9554 18.6556 67.9592 18.7131C67.9642 18.7927 67.9686 18.8721 67.9724 18.9513C67.9724 18.9956 67.9774 19.0394 67.9793 19.0838C67.9844 19.1975 67.9888 19.3113 67.9919 19.425L67.9957 19.5794C67.9957 19.6325 67.9957 19.6856 67.9957 19.7388C67.9986 19.8267 68.0001 19.9138 68.0001 20Z" fill="#71A894"/>
<path d="M34 5.47682C33.6592 5.79682 33.3303 6.12828 33.0134 6.47119C32.9762 6.51057 32.9397 6.55057 32.9038 6.59057C32.8534 6.64494 32.8037 6.69994 32.7552 6.75557C32.7067 6.81119 32.6627 6.85932 32.6173 6.91182C32.572 6.96432 32.5122 7.03307 32.4599 7.09432C32.3063 7.27349 32.1564 7.45578 32.0104 7.64119L31.8895 7.79557C31.8674 7.82244 31.8467 7.84995 31.8265 7.87807C31.7931 7.9212 31.7598 7.96432 31.727 8.00807C31.5172 8.28682 31.3136 8.57119 31.1163 8.86119C31.081 8.91307 31.0458 8.96557 31.0111 9.01869C30.9671 9.08494 30.923 9.15182 30.8802 9.21869C30.7977 9.34369 30.7165 9.47432 30.6378 9.60369C30.6025 9.66057 30.5679 9.71744 30.5339 9.77494C30.5049 9.82244 30.4766 9.86994 30.4483 9.91807C30.3408 10.1002 30.2359 10.2843 30.1334 10.4706C28.8426 9.13401 27.2923 8.07095 25.5761 7.34555C23.8599 6.62015 22.0134 6.24745 20.1481 6.24994C12.4981 6.24994 6.2963 12.4062 6.2963 19.9999C6.2963 27.5937 12.4981 33.75 20.1481 33.75C21.7473 33.7518 23.3346 33.4782 24.8395 32.9412C25.9118 34.8149 27.2121 36.5506 28.7111 38.1093C26.0322 39.3586 23.108 40.0042 20.1481 40C9.0207 40 0 31.0456 0 19.9999C0 8.95432 9.0207 -5.73622e-05 20.1481 -5.73622e-05C25.3017 -0.00315823 30.2599 1.95727 34 5.47682Z" fill="#303031"/>
</g>
<defs>
<clipPath id="clip0_695_10">
<rect width="68" height="40" fill="white"/>
</clipPath>
</defs>
</svg>
